<svg width="462" height="283" viewBox="0 0 462 283" fill="none" xmlns="http://www.w3.org/2000/svg">
<path d="M282.916 91.9766C287.535 87.2793 295.008 87.2788 299.491 92.1182L458.589 262.218C465.926 269.904 460.626 283 450.301 283H128.846C118.384 283 113.221 269.762 120.558 262.075L282.916 91.9766ZM311.068 0C319.47 0 323.671 10.6889 317.67 16.8506L173.158 167.246C167.637 173.031 160.195 176.3 152.394 176.3H9.92285C1.04106 176.3 -3.39991 164.858 3.08105 158.444L152.874 6.91602C157.195 2.51496 162.956 7.81217e-05 169.077 0H311.068Z" fill="url(#paint0_linear_5485_6083)" fill-opacity="0.15"/>
<defs>
<linearGradient id="paint0_linear_5485_6083" x1="231" y1="0" x2="231" y2="283" gradientUnits="userSpaceOnUse">
<stop stop-color="#545454"/>
</linearGradient>
</defs>
</svg>
